#!OML:ASF E:/inclinewalkrobotboard/Project1/Captureday1/Session1/subject1.ASF
:FULLY-SPECIFIED
:DEGREES
51
root 0 0 0 -1.0650482992880044 -0.2930835704869379 3.283447700981037
lowerback 10.00338932075695 -0.9275050271787825 -4.563130309483219
upperback 0.6377862564773596 -1.782061852813331 0.693593527215204
thorax -4.781852598139605 -0.7715698940243572 3.5343269651590594
lowerneck -15.593424526505606 -2.6609217765853797 -3.010424392750544
upperneck 12.292364166293241 -3.1095640989809876 1.876855521967388
head 6.186087524020768 -1.6028218120407818 0.790860230601742
rclavicle 1.6301463111306189E-15 8.519668870339067E-16
rhumerus -32.026432444110334 -24.87601042420771 -79.90784382403342
rradius 22.171450082089194
rwrist 11.896933140552452
rhand -19.529504474087194 25.296972455491513
rfingers 7.1250200000000055
rthumb 6.815056856442113 -4.748869679087825
lclavicle 6.255285297888083E-15 1.7770998717981434E-15
lhumerus -26.531725815559543 -5.080641360723641 82.55836396294741
lradius 32.44463497188339
lwrist 8.694352604600589
lhand -28.336609073859385 24.731357364584248
lfingers 7.125020000000017
lthumb -1.7479929393681974 54.700420874669135
rfemur -31.459143968115313 3.806275213608183 20.971334462917515
rtibia 39.63134056198012
rfoot -5.901869140410856 -10.860441549666266
rtoes 2.0319654294031517
lfemur 10.96776086505653 -6.148046451927957 -28.494872584221085
ltibia 16.715752492528253
lfoot -15.76813452658056 -0.5218821245991783
ltoes -1.6221997643852468
52
root 0 0 0 -0.8431341210170052 0.4824864132223974 2.601371024472806
lowerback 9.591846278616579 -1.1870993540523869 -4.358385444110353
upperback 0.39711959301803923 -2.043170071708757 1.182177012975105
thorax -4.7819076967768925 -0.8989432167055775 3.9562054669318876
lowerneck -15.687811520997341 -2.808839803221698 -3.1183452471472557
upperneck 14.546623532140133 -3.336259886510324 1.931604510797024
head 7.0510069015741 -1.6923292645690842 0.7822849412180433
rclavicle 2.075432206422658E-15 9.350158686064578E-16
rhumerus -32.41150210157973 -25.7024299555349 -79.67179799700423
rradius 21.5170212763068
rwrist 11.447472504842828
rhand -19.481687797561293 25.02069537303943
rfingers 7.125020000000006
rthumb 6.862003807251988 -5.020092420783389
lclavicle 6.958616210534998E-15 2.021214588048063E-15
lhumerus -26.41573719231651 -5.012814765330928 82.50126229430042
lradius 32.3199430712426
lwrist 8.614549476064639
lhand -28.374662205317854 24.755834248097717
lfingers 7.125020000000018
lthumb -1.7807734880285189 54.725274555347156
rfemur -29.658868191270944 4.819500996305744 21.543160795451584
rtibia 33.31961210556432
rfoot -8.146052273216323 -11.379780529646661
rtoes 0.2944235177187209
lfemur 11.827245050370475 -6.311128543159383 -28.006051402404047
ltibia 17.40514725588468
lfoot -14.944963119168037 -1.0766674050904599
ltoes -3.4301041259457747
53
root 0 0 0 -0.9320107089728327 0.8729155034910301 1.8892674371146287
lowerback 8.95976972944665 -1.3658576045315405 -4.0044763373580965
upperback 0.04623957557708322 -2.177088144860617 1.6261715132843924
thorax -4.797961704312941 -0.9694919525083598 4.239694410894901
lowerneck -16.42520838857095 -2.8920553961402966 -3.166538408373302
upperneck 17.12447377155404 -3.4493844337125528 1.6750107109365329
head 8.102415503603915 -1.7378642618247802 0.6651441473224909
rclavicle 2.229416443425674E-15 1.0045104668113015E-15
rhumerus -32.92375083205924 -26.5912911408091 -79.38619843200303
rradius 20.519549036052773
rwrist 10.832073763092925
rhand -19.317065380790055 24.73046594244619
rfingers 7.125020000000008
rthumb 7.021065910208021 -5.294382305715125
lclavicle 7.142481704138132E-15 2.183323598413483E-15
lhumerus -26.512145342065054 -4.74597702960741 82.46851876744365
lradius 31.9785459802157
lwrist 8.462521585294978
lhand -28.408058888042248 24.921636167787067
lfingers 7.125020000000021
lthumb -1.806907964358702 54.895334797980254
rfemur -27.805053483228487 5.295272421884279 22.091349675371198
rtibia 30.505225455083963
rfoot -9.057306055279456 -11.078550746414885
rtoes -0.0342733229654304
lfemur 12.598613926306953 -6.252114497905639 -27.253965703340878
ltibia 19.340861211081766
lfoot -13.717062580209063 -2.0160521869045858
ltoes -6.0041502601500305
54
root 0 0 0 -1.8308061853225877 0.7913204042182214 0.7382257208307208
lowerback 7.929598279820787 -1.4836323067255166 -2.8826812705594467
upperback -0.290228795732468 -2.1645066941923945 2.0783444652799052
thorax -4.61386766351715 -0.9827857345796029 4.107105481397917
lowerneck -17.336238592102536 -2.749474247015728 -2.951029602290269
upperneck 19.721545708121447 -3.229048785456325 0.8820888552466364
head 9.030102488312922 -1.6513837128801017 0.35520871615106164
rclavicle 1.966627558112943E-15 8.163951404088787E-16
rhumerus -33.75525136709842 -27.57541870897678 -79.11822245261656
rradius 18.917687990494578
rwrist 9.795085044163432
rhand -18.981733393512148 24.33247964138277
rfingers 7.125020000000012
rthumb 7.345212273074803 -5.645538055660509
lclavicle 6.055399452258861E-15 2.0312713663908917E-15
lhumerus -27.018618609204566 -4.271738592768237 82.6652129145518
lradius 31.395470830614258
lwrist 8.242836453064834
lhand -28.36572738783166 25.216633240556117
lfingers 7.125020000000025
lthumb -1.7560018441819114 55.20049296150032
rfemur -24.347842265832128 5.669289259336905 23.548047875002272
rtibia 29.713538418831703
rfoot -9.643745826753978 -9.852883872475172
rtoes 1.1920730957568413
lfemur 12.426135969237375 -5.594148873284297 -25.648947676120926
ltibia 25.66154864747424
lfoot -10.721564332194934 -4.3029299801505
ltoes -9.477660157860164
